{"title":"Three Days of the Condor - I Tre Giorni del Condor (1975).BRrip.","uid":12131822,"size":1770910891,"categoryP":"video","categoryS":"movies","magnet":"?xt=urn:btih:7b19597cca7664e5f1a270a701dc2cfe92d23f95&amp;dn=Three+Days+of+the+Condor+-+I+Tre+Giorni+del+Condor+%281975%29.BRrip.&amp;tr=udp%3A%2F%2Ftracker.openbittorrent.com%3A80&amp;tr=udp%3A%2F%2Fopen.demonii.com%3A1337&amp;tr=udp%3A%2F%2Ftracker.coppersurfer.tk%3A6969&amp;tr=udp%3A%2F%2Fexodus.desync.com%3A6969","seeders":1,"leechers":0,"uploader":"robbyrs4","files":3,"time":1437062304,"description":"Three Days of the Condor - I Tre Giorni del Condor (1975).BRrip.XviD .ita.eng.sub.eng.MIRCrew\n\n[center]\n\n[color=red][b][img]http://s19.postimg.org/w9ws99nmb/banner_mircrew_original_2.png[/img]\n\n[u]NO FOUND ONLY ORIGINAL RELEASE[/u]\n\nI Tre Giorni del Condor - Three Days of the Condor (1975)\n\n[img]http://i.imgur.com/yYi8aIi.png[/img]\n\n\n[URL=http://www.imdb.com/title/tt0073802/][IMG]http://www.userlogos.org/files/logos/Sucka/imdb_new.png[/IMG][/URL]  \n\n[img]http://s19.postimg.org/vz5tzn42b/1_scheda.png[/img]\n\nTitolo originale \tThree Days of the Condor\nPaese di produzione \tStati Uniti d'America\nAnno \t1975\nDurata \t112 min\nGenere \tspionaggio, thriller\nRegia \tSydney Pollack\nSoggetto \tJames Grady\nSceneggiatura \tLorenzo Semple Jr\nProduttore \tStanley Schneider\nProduttore esecutivo \tDino De Laurentiis\nFotografia \tOwen Roizman\nMontaggio \tDon Giudice\nMusiche \tDave Grusin\nScenografia \tStephen B. Grimes\n\n[img]http://s19.postimg.org/q8fnlww2b/1_cast.png[/img]\n\n\n    Robert Redford: Joseph Turner/Condor\n    Faye Dunaway: Kathy Hale\n    Cliff Robertson: Higgins\n    Max Von Sydow: Joubert\n    Addison Powell: Leonard Atwood\n    Walter McGinn: Sam Barber\n    Michael Kane: S.W. Wicks\n    John Houseman: Mr. Wabash\n    Tina Chen: Janice Chon\n\n   \n[img]http://s19.postimg.org/okgi79i6r/1_trama.png[/img]\n\nManhattan. Un commando di sicari, guidati da un uomo di nome Joubert, irrompe in una sezione impiegatizia della CIA, impegnata in operazioni di OSINT, dove vengono letti e studiati libri e giornali provenienti da tutto il mondo in cerca di individui sospetti, codici segreti o trame nascoste.........\n\n[img]http://s19.postimg.org/fzn6g380j/1_story.png[/img]\n\nA bookish CIA researcher finds all his co-workers dead, and must outwit those responsible until he figures out who he can really trust.............\n &lt;a href=&quot;\nhttp://extraimago.com/images/2015/07/16/vlcsnap-2015-07-16-15h44m11s4.png[/img]&quot; rel=&quot;nofollow&quot; target=&quot;_NEW&quot;&gt;\nhttp://extraimago.com/images/2015/07/16/vlcsnap-2015-07-16-15h44m11s4.png[/img]&lt;/a&gt;\n\n[url=http://extraimago.com/image/1Jw][img]http://extraimago.com/images/2015/07/16/vlcsnap-2015-07-16-15h44m21s100.th.png[/img][/url] [url=http://extraimago.com/image/1J2][img]http://extraimago.com/images/2015/07/16/vlcsnap-2015-07-16-15h44m26s149.th.png[/img][/url]\n\n[IMG]http://img153.imageshack.us/img153/3158/restateinseedblood.gif[/img]\n\n\n[img]http://imgur.com/lvhU6.gif[/img]\n\n\n[img]http://s19.postimg.org/a2jaz9qvn/1_dati.png[/img]\n\n\n[spoiler]\nGeneral\nComplete name                            : I Tre Giorni del Condor - Three Days of the Condor (1975).ita.eng.sub.eng.MIRCrewI Tre Giorni del Condor - Three Days of the Condor (1975).ita.eng.sub.eng.MIRCrew.avi\nFormat                                   : AVI\nFormat/Info                              : Audio Video Interleave\nFile size                                : 1.65 GiB\nDuration                                 : 1h 57mn\nOverall bit rate                         : 2 011 Kbps\nWriting application                      : VirtualDubMod 1.5.10.2 (build 2540/release)\nWriting library                          : VirtualDubMod build 2540/release\n\nVideo\nID                                       : 0\nFormat                                   : MPEG-4 Visual\nFormat profile                           : Simple@L3\nFormat settings, BVOP                    : No\nFormat settings, QPel                    : No\nFormat settings, GMC                     : No warppoints\nFormat settings, Matrix                  : Default (H.263)\nCodec ID                                 : XVID\nCodec ID/Hint                            : XviD\nDuration                                 : 1h 57mn\nBit rate                                 : 1 357 Kbps\nWidth                                    : 716 pixels\nHeight                                   : 304 pixels\nDisplay aspect ratio                     : 2.35:1\nFrame rate                               : 23.976 fps\nColor space                              : YUV\nChroma subsampling                       : 4:2:0\nBit depth                                : 8 bits\nScan type                                : Progressive\nCompression mode                         : Lossy\nBits/(Pixel*Frame)                       : 0.260\nStream size                              : 1.11 GiB (67%)\nWriting library                          : XviD 65\n\nAudio #1\nID                                       : 1\nFormat                                   : AC-3\nFormat/Info                              : Audio Coding 3\nMode extension                           : CM (complete main)\nCodec ID                                 : 2000\nDuration                                 : 1h 57mn\nBit rate mode                            : Constant\nBit rate                                 : 384 Kbps\nChannel(s)                               : 6 channels\nChannel positions                        : Front: L C R, Side: L R, LFE\nSampling rate                            : 44.1 KHz\nBit depth                                : 16 bits\nCompression mode                         : Lossy\nStream size                              : 322 MiB (19%)\nAlignment                                : Split accross interleaves\nInterleave, duration                     : 42 ms (1.00 video frame)\nInterleave, preload duration             : 500 ms\n\nAudio #2\nID                                       : 2\nFormat                                   : AC-3\nFormat/Info                              : Audio Coding 3\nMode extension                           : CM (complete main)\nCodec ID                                 : 2000\nDuration                                 : 1h 57mn\nBit rate mode                            : Constant\nBit rate                                 : 256 Kbps\nChannel(s)                               : 2 channels\nChannel positions                        : Front: L R\nSampling rate                            : 48.0 KHz\nBit depth                                : 16 bits\nCompression mode                         : Lossy\nStream size                              : 215 MiB (13%)\nAlignment                                : Split accross interleaves\nInterleave, duration                     : 42 ms (1.00 video frame)\nInterleave, preload duration             : 500 ms\n\n\n[/spoiler]\n\n[/color][/b][/center]","torrent":{"xt":"urn:btih:7b19597cca7664e5f1a270a701dc2cfe92d23f95","amp;dn":"Three+Days+of+the+Condor+-+I+Tre+Giorni+del+Condor+%281975%29.BRrip.","amp;tr":["udp%3A%2F%2Ftracker.openbittorrent.com%3A80","udp%3A%2F%2Fopen.demonii.com%3A1337","udp%3A%2F%2Ftracker.coppersurfer.tk%3A6969","udp%3A%2F%2Fexodus.desync.com%3A6969"],"infoHash":"7b19597cca7664e5f1a270a701dc2cfe92d23f95","infoHashBuffer":{"type":"Buffer","data":[123,25,89,124,202,118,100,229,241,162,112,167,1,220,44,254,146,210,63,149]},"announce":[],"urlList":[]}}